<svg width="300" height="300" viewBox="0 0 300 300" fill="none" xmlns="http://www.w3.org/2000/svg">
<circle cx="149.707" cy="224.573" r="8.42667" fill="#F67A3C"/>
<circle opacity="0.6" cx="119.161" cy="224.573" r="8.42667" fill="#F67A3C"/>
<circle opacity="0.6" cx="183.414" cy="224.573" r="8.42667" fill="#F67A3C"/>
<path d="M235.164 67H65.9238C62.9357 67 60.07 68.187 57.9571 70.2999C55.8442 72.4128 54.6572 75.2786 54.6572 78.2667V187.577C54.6572 190.565 55.8442 193.431 57.9571 195.544C60.07 197.657 62.9357 198.844 65.9238 198.844H235.164C238.152 198.844 241.017 197.657 243.13 195.544C245.243 193.431 246.43 190.565 246.43 187.577V78.2667C246.43 75.2786 245.243 72.4128 243.13 70.2999C241.017 68.187 238.152 67 235.164 67V67ZM234.444 186.858H66.643V78.9858H234.444V186.858Z" fill="#5C1AC2"/>
<path d="M93.971 123.633C97.5269 123.633 101.003 122.579 103.959 120.603C106.916 118.628 109.22 115.82 110.581 112.534C111.942 109.249 112.298 105.634 111.604 102.147C110.911 98.6593 109.198 95.4558 106.684 92.9414C104.17 90.4271 100.966 88.7147 97.4785 88.021C93.9909 87.3273 90.376 87.6834 87.0908 89.0441C83.8057 90.4049 80.9978 92.7093 79.0222 95.6659C77.0467 98.6224 75.9923 102.098 75.9923 105.654C75.9923 110.423 77.8865 114.996 81.2581 118.367C84.6298 121.739 89.2028 123.633 93.971 123.633V123.633ZM93.971 96.0657C95.8769 96.018 97.7538 96.5396 99.3619 97.5638C100.97 98.588 102.236 100.068 102.999 101.816C103.761 103.563 103.986 105.498 103.643 107.374C103.301 109.249 102.407 110.98 101.076 112.345C99.7452 113.71 98.0376 114.648 96.1713 115.037C94.305 115.427 92.3649 115.252 90.5988 114.534C88.8327 113.816 87.3208 112.587 86.2562 111.006C85.1916 109.424 84.6227 107.561 84.6221 105.654C84.6213 103.152 85.5985 100.749 87.3452 98.9575C89.0919 97.166 91.4697 96.1282 93.971 96.0657V96.0657Z" fill="#5C1AC2"/>
<path d="M90.0149 174.872L125.972 138.915L145.03 157.972L128.13 174.872H140.116L184.823 130.165L222.458 167.501V155.515L187.699 120.936C186.902 120.146 185.825 119.702 184.703 119.702C183.58 119.702 182.503 120.146 181.706 120.936L150.783 151.86L128.789 129.925C127.992 129.135 126.915 128.691 125.793 128.691C124.67 128.691 123.593 129.135 122.796 129.925L78.1489 174.872H90.0149Z" fill="#5C1AC2"/>
<path d="M289.415 132.922L254.921 152.837L254.921 113.007L289.415 132.922Z" fill="#F67A3C"/>
<path d="M10 132.922L44.4941 152.837L44.4941 113.007L10 132.922Z" fill="#F67A3C"/>
</svg>
