<svg width="300" height="300" viewBox="0 0 300 300" fill="none" xmlns="http://www.w3.org/2000/svg">
<rect x="41" y="71" width="226" height="18" rx="5" fill="#5C1AC2"/>
<path d="M41 76C41 73.2386 43.2386 71 46 71H122V89H46C43.2386 89 41 86.7614 41 84V76Z" fill="#F67A3C"/>
<path d="M198 131.176C194.467 132.782 190.658 133.838 186.711 134.342C190.75 131.911 193.87 128.056 195.338 123.422C191.53 125.716 187.308 127.322 182.857 128.24C179.231 124.294 174.138 122 168.356 122C157.572 122 148.761 130.809 148.761 141.684C148.761 143.244 148.945 144.758 149.266 146.18C132.929 145.354 118.382 137.508 108.7 125.625C107.002 128.515 106.038 131.911 106.038 135.489C106.038 142.326 109.48 148.382 114.803 151.824C111.545 151.824 108.516 150.906 105.855 149.529V149.667C105.855 159.211 112.646 167.194 121.641 168.984C118.753 169.774 115.721 169.884 112.784 169.305C114.03 173.216 116.471 176.639 119.764 179.091C123.056 181.544 127.035 182.903 131.14 182.978C124.181 188.486 115.556 191.463 106.681 191.42C105.12 191.42 103.56 191.328 102 191.145C110.719 196.742 121.09 200 132.195 200C168.356 200 188.226 169.993 188.226 143.978C188.226 143.106 188.226 142.28 188.18 141.408C192.034 138.655 195.338 135.168 198 131.176V131.176Z" fill="#F67A3C"/>
<rect x="21" y="52" width="265" height="199" rx="12" stroke="#5C1AC2" stroke-width="10"/>
</svg>
