<svg width="300" height="300" viewBox="0 0 300 300" fill="none" xmlns="http://www.w3.org/2000/svg">
<path d="M264.784 61H36.2163C32.1807 61 28.3103 62.6026 25.4567 65.4552C22.6031 68.3078 21 72.1767 21 76.2109V223.789C21 227.823 22.6031 231.692 25.4567 234.545C28.3103 237.397 32.1807 239 36.2163 239H264.784C268.819 239 272.69 237.397 275.543 234.545C278.397 231.692 280 227.823 280 223.789V76.2109C280 72.1767 278.397 68.3078 275.543 65.4552C272.69 62.6026 268.819 61 264.784 61V61ZM263.812 222.818H37.1875V77.1818H263.812V222.818Z" fill="#5C1AC2"/>
<circle cx="151" cy="137" r="31" fill="#F67A3C"/>
<path d="M164 135.268C165.333 136.038 165.333 137.962 164 138.732L146 149.124C144.667 149.894 143 148.932 143 147.392L143 126.608C143 125.068 144.667 124.106 146 124.876L164 135.268Z" fill="white"/>
<path d="M21 199H280V226C280 233.18 274.18 239 267 239H34C26.8203 239 21 233.18 21 226V199Z" fill="#5C1AC2"/>
<rect x="37" y="196" width="227" height="3" fill="#F67A3C"/>
<path opacity="0.5" d="M50 215.268C51.3333 216.038 51.3333 217.962 50 218.732L41 223.928C39.6667 224.698 38 223.736 38 222.196L38 211.804C38 210.264 39.6667 209.302 41 210.072L50 215.268Z" fill="white"/>
<g opacity="0.5">
<mask id="path-7-inside-1_42_65" fill="white">
<rect x="248.286" y="208.875" width="16.4286" height="16.4286" rx="1"/>
</mask>
<rect x="248.286" y="208.875" width="16.4286" height="16.4286" rx="1" stroke="white" stroke-width="6" mask="url(#path-7-inside-1_42_65)"/>
</g>
<rect x="245" y="215.446" width="23" height="4.10714" fill="#5C1AC2"/>
<rect x="258.964" y="206" width="23" height="4.10714" transform="rotate(90 258.964 206)" fill="#5C1AC2"/>
</svg>
