<svg width="300" height="300" viewBox="0 0 300 300" fill="none" xmlns="http://www.w3.org/2000/svg">
<path d="M252 42H63V81.4545H138.6V259H176.4V81.4545H252V42Z" fill="#5C1AC2"/>
<rect x="182" y="89" width="66" height="5" fill="#F67A3C"/>
<g clip-path="url(#clip0_202_11)">
<path d="M72.1964 141.252L79.4 117.6L86.6072 141.256L108.2 149.15L86.7728 157.661L79.4 182.4L72.0272 157.661L50.6 149.15L72.1964 141.252Z" stroke="#F67A3C" stroke-width="2" stroke-linejoin="round"/>
<path d="M108.506 162.866C108.497 162.792 108.461 162.724 108.404 162.674C108.348 162.625 108.275 162.599 108.2 162.6C108.125 162.599 108.052 162.625 107.996 162.674C107.939 162.724 107.903 162.792 107.894 162.866C107.178 170.045 106.652 172.144 99.4772 172.82C99.4024 172.826 99.3323 172.859 99.281 172.914C99.2296 172.969 99.2007 173.041 99.2 173.116C99.2 173.27 99.3188 173.396 99.4772 173.411C106.551 174.077 107.167 176.636 107.894 183.934C107.904 184.008 107.94 184.076 107.997 184.125C108.053 184.174 108.125 184.201 108.2 184.2C108.358 184.2 108.488 184.085 108.506 183.934C109.233 176.636 109.845 174.077 116.923 173.411C116.998 173.405 117.068 173.372 117.119 173.317C117.17 173.263 117.199 173.191 117.2 173.116C117.199 173.041 117.17 172.969 117.119 172.914C117.068 172.859 116.998 172.826 116.923 172.82C109.748 172.144 109.219 170.048 108.506 162.866Z" fill="#F67A3C" stroke="#F67A3C"/>
<path d="M79.4 186C77.816 186 76.412 184.956 75.944 183.444L69.068 160.368L49.268 152.484C47.9 151.944 47 150.612 47 149.1C47 147.588 47.972 146.292 49.376 145.752L69.284 138.48L75.944 116.556C76.412 115.044 77.816 114 79.4 114C80.984 114 82.388 115.044 82.856 116.556L89.552 138.48L109.46 145.752C110.864 146.256 111.8 147.588 111.836 149.1C111.872 150.612 110.936 151.944 109.568 152.484L89.768 160.332L82.892 183.408C82.424 184.92 81.02 185.964 79.436 185.964L79.4 186ZM60.716 149.28L73.352 154.32C74.36 154.716 75.152 155.58 75.476 156.624L79.4 169.8L83.324 156.624C83.648 155.58 84.404 154.716 85.448 154.32L98.084 149.28L85.34 144.636C84.296 144.24 83.468 143.376 83.144 142.296L79.4 129.948L75.656 142.296C75.332 143.376 74.504 144.24 73.46 144.636L60.716 149.28ZM108.2 186C107.12 186 106.22 185.172 106.112 184.092C105.392 177.072 105.104 175.74 99.308 175.2C98.7875 175.151 98.304 174.91 97.9513 174.524C97.5987 174.138 97.4022 173.635 97.4 173.112C97.4 172.032 98.228 171.132 99.308 171.024C105.104 170.484 105.428 169.584 106.112 162.672C106.179 162.165 106.427 161.7 106.811 161.363C107.196 161.027 107.689 160.841 108.2 160.841C108.711 160.841 109.204 161.027 109.589 161.363C109.973 161.7 110.221 162.165 110.288 162.672C110.972 169.584 111.296 170.484 117.092 171.024C118.172 171.132 119 172.032 119 173.112C119 174.192 118.208 175.092 117.128 175.2C111.332 175.74 111.008 177.072 110.288 184.092C110.18 185.172 109.28 185.964 108.2 185.964V186Z" fill="#F67A3C"/>
</g>
<defs>
<clipPath id="clip0_202_11">
<rect width="72" height="72" fill="white" transform="translate(47 114)"/>
</clipPath>
</defs>
</svg>
