<svg width="300" height="300" viewBox="0 0 300 300" fill="none" xmlns="http://www.w3.org/2000/svg">
<path d="M249.117 206.753V92.9823C255.273 91.3739 260.905 88.1124 265.441 83.5298C269.977 78.9472 273.255 73.2072 274.94 66.894C276.626 60.5808 276.659 53.9199 275.036 47.5893C273.413 41.2587 270.193 35.4844 265.702 30.8543C261.212 26.2242 255.612 22.9035 249.472 21.2303C243.333 19.5571 236.873 19.5911 230.75 21.3289C224.628 23.0667 219.061 26.4462 214.617 31.1234C210.172 35.8005 207.009 41.6084 205.449 47.9558H95.1118C93.5519 41.6084 90.3889 35.8005 85.9446 31.1234C81.5003 26.4462 75.9335 23.0667 69.8108 21.3289C63.6881 19.5911 57.2282 19.5571 51.0887 21.2303C44.9491 22.9035 39.3491 26.2242 34.8587 30.8543C30.3683 35.4844 27.1478 41.2587 25.5251 47.5893C23.9024 53.9199 23.9354 60.5808 25.6208 66.894C27.3061 73.2072 30.5836 78.9472 35.1196 83.5298C39.6557 88.1124 45.2883 91.3739 51.4441 92.9823V206.753C45.2883 208.361 39.6557 211.623 35.1196 216.206C30.5836 220.788 27.3061 226.528 25.6208 232.841C23.9354 239.155 23.9024 245.815 25.5251 252.146C27.1478 258.477 30.3683 264.251 34.8587 268.881C39.3491 273.511 44.9491 276.832 51.0887 278.505C57.2282 280.178 63.6881 280.144 69.8108 278.406C75.9335 276.669 81.5003 273.289 85.9446 268.612C90.3889 263.935 93.5519 258.127 95.1118 251.78H205.449C207.009 258.127 210.172 263.935 214.617 268.612C219.061 273.289 224.628 276.669 230.75 278.406C236.873 280.144 243.333 280.178 249.472 278.505C255.612 276.832 261.212 273.511 265.702 268.881C270.193 264.251 273.413 258.477 275.036 252.146C276.659 245.815 276.626 239.155 274.94 232.841C273.255 226.528 269.977 220.788 265.441 216.206C260.905 211.623 255.273 208.361 249.117 206.753ZM240.132 38.6911C243.686 38.6911 247.16 39.7778 250.116 41.8138C253.071 43.8499 255.374 46.7438 256.734 50.1296C258.094 53.5154 258.45 57.2411 257.757 60.8354C257.063 64.4298 255.352 67.7314 252.839 70.3228C250.326 72.9142 247.124 74.6789 243.638 75.3939C240.152 76.1089 236.539 75.7419 233.255 74.3395C229.971 72.937 227.165 70.562 225.19 67.5149C223.216 64.4677 222.162 60.8853 222.162 57.2205C222.162 52.3062 224.055 47.5932 227.425 44.1182C230.795 40.6433 235.366 38.6911 240.132 38.6911V38.6911ZM42.459 57.2205C42.459 53.5557 43.5129 49.9732 45.4875 46.9261C47.4621 43.8789 50.2687 41.504 53.5523 40.1015C56.836 38.6991 60.4492 38.3321 63.9351 39.0471C67.421 39.7621 70.6229 41.5268 73.1361 44.1182C75.6493 46.7096 77.3608 50.0112 78.0542 53.6056C78.7476 57.1999 78.3917 60.9256 77.0316 64.3114C75.6715 67.6972 73.3682 70.5911 70.413 72.6272C67.4578 74.6632 63.9834 75.7499 60.4292 75.7499C55.6632 75.7499 51.0924 73.7977 47.7223 70.3228C44.3523 66.8478 42.459 62.1348 42.459 57.2205V57.2205ZM60.4292 261.044C56.8751 261.044 53.4007 259.958 50.4455 257.921C47.4903 255.885 45.187 252.992 43.8269 249.606C42.4668 246.22 42.1109 242.494 42.8043 238.9C43.4977 235.306 45.2092 232.004 47.7223 229.413C50.2355 226.821 53.4375 225.056 56.9234 224.341C60.4093 223.626 64.0225 223.993 67.3062 225.396C70.5898 226.798 73.3964 229.173 75.371 232.22C77.3456 235.268 78.3995 238.85 78.3995 242.515C78.3995 247.429 76.5062 252.142 73.1361 255.617C69.7661 259.092 65.1953 261.044 60.4292 261.044ZM205.449 233.25H95.1118C93.4985 226.877 90.2671 221.063 85.7504 216.406C81.2337 211.748 75.5949 208.417 69.4144 206.753V92.9823C75.5949 91.3187 81.2337 87.9868 85.7504 83.3296C90.2671 78.6723 93.4985 72.858 95.1118 66.4852H205.449C207.063 72.858 210.294 78.6723 214.811 83.3296C219.327 87.9868 224.966 91.3187 231.147 92.9823V206.753C224.966 208.417 219.327 211.748 214.811 216.406C210.294 221.063 207.063 226.877 205.449 233.25V233.25ZM240.132 261.044C236.578 261.044 233.103 259.958 230.148 257.921C227.193 255.885 224.89 252.992 223.529 249.606C222.169 246.22 221.813 242.494 222.507 238.9C223.2 235.306 224.912 232.004 227.425 229.413C229.938 226.821 233.14 225.056 236.626 224.341C240.112 223.626 243.725 223.993 247.009 225.396C250.292 226.798 253.099 229.173 255.074 232.22C257.048 235.268 258.102 238.85 258.102 242.515C258.102 247.429 256.209 252.142 252.839 255.617C249.469 259.092 244.898 261.044 240.132 261.044Z" fill="#F67A3C"/>
<path d="M195.206 103.544H105.355V122.074H141.296V205.456H159.266V122.074H195.206V103.544Z" fill="#5C1AC2"/>
</svg>
