<svg width="300" height="300" viewBox="0 0 300 300" fill="none" xmlns="http://www.w3.org/2000/svg">
<path d="M126.973 38C122.484 38 117.821 39.5541 114.541 42.835C111.26 46.1159 109.706 50.7782 109.706 55.2679V63.9019H32V236.581H146.008C144.886 231.055 144.281 225.27 144.281 219.313H49.2679V162.674C54.3619 165.61 60.233 167.509 66.5358 167.509H150.097C154.932 160.947 160.803 155.076 167.365 150.241H66.5358C56.2614 150.241 49.2679 143.248 49.2679 132.973V81.1698H239.215V132.973C239.215 134.355 239.128 142.573 238.869 143.782C245.086 145.681 250.957 148.271 256.483 151.466V63.9019H178.777V55.2679C178.777 50.7782 177.223 46.1159 173.942 42.835C170.661 39.5541 165.999 38 161.509 38H126.973ZM126.973 55.2679H161.509V63.9019H126.973V55.2679ZM83.8037 115.706V141.607H101.072V115.706H83.8037ZM187.411 115.706V136.945C193.034 135.188 198.819 134.002 204.679 133.405V115.706H187.411Z" fill="#5C1AC2"/>
<circle cx="208.538" cy="203" r="60" fill="#F67A3C"/>
<rect x="202.769" y="169.538" width="11.6534" height="46.6135" rx="4" fill="white"/>
<rect x="247.811" y="227.461" width="11.6534" height="46.6135" rx="4" transform="rotate(120 247.811 227.461)" fill="white"/>
</svg>
