<svg viewBox="0 0 300 300" fill="none" xmlns="http://www.w3.org/2000/svg">
<circle cx="150" cy="150" r="143" fill="#D53569" fill-opacity="0.08"/>
<path d="M204.299 174.844V123.156C207.183 122.426 209.822 120.944 211.947 118.862C214.071 116.78 215.607 114.172 216.396 111.304C217.186 108.436 217.201 105.41 216.441 102.534C215.681 99.658 214.172 97.0347 212.069 94.9312C209.965 92.8277 207.342 91.3191 204.466 90.5589C201.59 89.7988 198.564 89.8142 195.696 90.6037C192.828 91.3932 190.22 92.9286 188.138 95.0534C186.056 97.1783 184.574 99.8169 183.844 102.701H132.156C131.426 99.8169 129.944 97.1783 127.862 95.0534C125.78 92.9286 123.172 91.3932 120.304 90.6037C117.436 89.8142 114.41 89.7988 111.534 90.5589C108.658 91.3191 106.035 92.8277 103.931 94.9312C101.828 97.0347 100.319 99.658 99.5589 102.534C98.7988 105.41 98.8142 108.436 99.6037 111.304C100.393 114.172 101.929 116.78 104.053 118.862C106.178 120.944 108.817 122.426 111.701 123.156V174.844C108.817 175.574 106.178 177.056 104.053 179.138C101.929 181.22 100.393 183.828 99.6037 186.696C98.8142 189.564 98.7988 192.59 99.5589 195.466C100.319 198.342 101.828 200.965 103.931 203.069C106.035 205.172 108.658 206.681 111.534 207.441C114.41 208.201 117.436 208.186 120.304 207.396C123.172 206.607 125.78 205.071 127.862 202.947C129.944 200.822 131.426 198.183 132.156 195.299H183.844C184.574 198.183 186.056 200.822 188.138 202.947C190.22 205.071 192.828 206.607 195.696 207.396C198.564 208.186 201.59 208.201 204.466 207.441C207.342 206.681 209.965 205.172 212.069 203.069C214.172 200.965 215.681 198.342 216.441 195.466C217.201 192.59 217.186 189.564 216.396 186.696C215.607 183.828 214.071 181.22 211.947 179.138C209.822 177.056 207.183 175.574 204.299 174.844ZM200.09 98.4915C201.755 98.4915 203.383 98.9852 204.767 99.9102C206.152 100.835 207.231 102.15 207.868 103.688C208.505 105.226 208.672 106.919 208.347 108.552C208.022 110.185 207.22 111.685 206.043 112.862C204.866 114.039 203.366 114.841 201.733 115.166C200.1 115.491 198.407 115.324 196.869 114.687C195.331 114.05 194.016 112.971 193.091 111.586C192.166 110.202 191.672 108.575 191.672 106.91C191.672 104.677 192.559 102.536 194.138 100.957C195.717 99.3784 197.858 98.4915 200.09 98.4915V98.4915ZM107.492 106.91C107.492 105.245 107.985 103.617 108.91 102.233C109.835 100.848 111.15 99.7694 112.688 99.1323C114.226 98.4952 115.919 98.3285 117.552 98.6533C119.185 98.9781 120.685 99.7798 121.862 100.957C123.039 102.134 123.841 103.634 124.166 105.267C124.491 106.9 124.324 108.593 123.687 110.131C123.05 111.669 121.971 112.984 120.586 113.909C119.202 114.834 117.575 115.328 115.91 115.328C113.677 115.328 111.536 114.441 109.957 112.862C108.378 111.283 107.492 109.142 107.492 106.91V106.91ZM115.91 199.509C114.245 199.509 112.617 199.015 111.233 198.09C109.848 197.165 108.769 195.85 108.132 194.312C107.495 192.774 107.328 191.081 107.653 189.448C107.978 187.815 108.78 186.315 109.957 185.138C111.134 183.961 112.634 183.159 114.267 182.834C115.9 182.509 117.593 182.676 119.131 183.313C120.669 183.95 121.984 185.029 122.909 186.414C123.834 187.798 124.328 189.425 124.328 191.09C124.328 193.323 123.441 195.464 121.862 197.043C120.283 198.622 118.142 199.509 115.91 199.509ZM183.844 186.881H132.156C131.401 183.986 129.887 181.345 127.771 179.229C125.655 177.113 123.014 175.599 120.119 174.844V123.156C123.014 122.401 125.655 120.887 127.771 118.771C129.887 116.655 131.401 114.014 132.156 111.119H183.844C184.599 114.014 186.113 116.655 188.229 118.771C190.345 120.887 192.986 122.401 195.881 123.156V174.844C192.986 175.599 190.345 177.113 188.229 179.229C186.113 181.345 184.599 183.986 183.844 186.881V186.881ZM200.09 199.509C198.425 199.509 196.798 199.015 195.414 198.09C194.029 197.165 192.95 195.85 192.313 194.312C191.676 192.774 191.509 191.081 191.834 189.448C192.159 187.815 192.961 186.315 194.138 185.138C195.315 183.961 196.815 183.159 198.448 182.834C200.081 182.509 201.774 182.676 203.312 183.313C204.85 183.95 206.165 185.029 207.09 186.414C208.015 187.798 208.509 189.425 208.509 191.09C208.509 193.323 207.622 195.464 206.043 197.043C204.464 198.622 202.323 199.509 200.09 199.509Z" fill="#FCBA38"/>
<path d="M179.045 127.955H136.955V136.373H153.791V174.254H162.209V136.373H179.045V127.955Z" fill="#D53569"/>
<circle cx="88.5" cy="87.5" r="5.5" fill="#D53569"/>
<circle cx="172.5" cy="214.5" r="3.5" fill="#D53569"/>
</svg>
