<svg viewBox="0 0 300 300" fill="none" xmlns="http://www.w3.org/2000/svg">
<circle cx="150" cy="150" r="143" fill="#D53569" fill-opacity="0.08"/>
<circle cx="196.5" cy="91.5" r="5.5" fill="#D53569"/>
<circle cx="150.5" cy="210.5" r="3.5" fill="#F1C979"/>
<circle opacity="0.6" cx="137.5" cy="210.5" r="3.5" fill="#F1C979"/>
<circle opacity="0.6" cx="164.5" cy="210.5" r="3.5" fill="#F1C979"/>
<path d="M205.742 113H95.3491C93.4 113 91.5307 113.774 90.1525 115.152C88.7743 116.531 88 118.4 88 120.349V191.651C88 193.6 88.7743 195.469 90.1525 196.847C91.5307 198.226 93.4 199 95.3491 199H205.742C207.691 199 209.56 198.226 210.938 196.847C212.317 195.469 213.091 193.6 213.091 191.651V120.349C213.091 118.4 212.317 116.531 210.938 115.152C209.56 113.774 207.691 113 205.742 113V113ZM205.273 191.182H95.8182V120.818H205.273V191.182Z" fill="#D53569"/>
<path d="M113.644 149.941C115.963 149.941 118.231 149.253 120.159 147.965C122.088 146.676 123.591 144.844 124.478 142.702C125.366 140.559 125.598 138.201 125.146 135.926C124.693 133.651 123.576 131.561 121.936 129.921C120.296 128.281 118.207 127.164 115.932 126.712C113.657 126.259 111.299 126.492 109.156 127.379C107.013 128.267 105.182 129.77 103.893 131.698C102.604 133.627 101.917 135.894 101.917 138.214C101.917 141.324 103.152 144.307 105.351 146.506C107.551 148.705 110.534 149.941 113.644 149.941V149.941ZM113.644 131.959C114.887 131.928 116.111 132.268 117.16 132.936C118.209 133.604 119.035 134.57 119.533 135.71C120.03 136.85 120.176 138.112 119.953 139.335C119.73 140.559 119.147 141.688 118.279 142.578C117.41 143.468 116.296 144.08 115.079 144.334C113.862 144.588 112.596 144.474 111.444 144.006C110.292 143.537 109.306 142.736 108.612 141.704C107.917 140.673 107.546 139.457 107.546 138.214C107.545 136.582 108.183 135.014 109.322 133.845C110.461 132.677 112.012 132 113.644 131.959V131.959Z" fill="#D53569"/>
<path d="M111.063 183.364L134.518 159.909L146.949 172.34L135.925 183.364H143.743L172.905 154.202L197.454 178.555V170.737L174.782 148.182C174.262 147.666 173.559 147.377 172.827 147.377C172.095 147.377 171.392 147.666 170.872 148.182L150.702 168.353L136.355 154.045C135.835 153.53 135.133 153.24 134.401 153.24C133.668 153.24 132.966 153.53 132.446 154.045L103.323 183.364H111.063Z" fill="#D53569"/>
<path d="M248 156L225.5 168.99L225.5 143.01L248 156Z" fill="#F1C979"/>
<path d="M52 156L74.5 168.99L74.5 143.01L52 156Z" fill="#F1C979"/>
</svg>
